<?xml version="1.0" ?><svg fill="#f2f2f2" id="Layer_1" style="enable-background:new 0 0 100 100;" version="1.1" viewBox="0 0 100 100" xml:space="preserve" xmlns="http://www.w3.org/2000/svg" xmlns:xlink="http://www.w3.org/1999/xlink"><g><path d="M51.7,4c-25.4,0-46,20.6-46,46s20.6,46,46,46s46-20.6,46-46S77.1,4,51.7,4z M51.7,94c-24.3,0-44-19.7-44-44s19.7-44,44-44   s44,19.7,44,44S76,94,51.7,94z"/></g><path d="M82.3,31.3c0-0.1,0-0.2,0-0.2c0-0.1-0.1-0.1-0.1-0.2c0,0,0-0.1-0.1-0.1c-0.1-0.1-0.2-0.1-0.3-0.2c0,0,0,0-0.1,0  s-0.2-0.1-0.3-0.1H21.9c-0.1,0-0.3,0-0.4,0.1c0,0,0,0-0.1,0c-0.1,0-0.2,0.1-0.3,0.2c0,0,0,0.1-0.1,0.1c-0.1,0.1-0.1,0.1-0.1,0.2  c0,0.1,0,0.2,0,0.2v0.1v37.4c0,0,0,0,0,0.1c0,0.3,0.1,0.5,0.3,0.8c0.2,0.2,0.5,0.3,0.7,0.3c0.1,0,0.3,0,0.4-0.1h58.6  c0.1,0.1,0.3,0.1,0.4,0.1c0.3,0,0.5-0.1,0.7-0.3c0.3-0.3,0.4-0.8,0.2-1.1v-37C82.3,31.4,82.3,31.4,82.3,31.3z M78.8,32.5L51.6,58.8  L24.4,32.5H78.8z M50.9,61c0.2,0.2,0.4,0.3,0.7,0.3c0.3,0,0.5-0.1,0.7-0.3l28-27.1v32.6L66.1,52.3c-0.4-0.4-1-0.4-1.4,0  s-0.4,1,0,1.4l14.2,14.2H24.3l14.2-14.2c0.4-0.4,0.4-1,0-1.4s-1-0.4-1.4,0L22.9,66.5V33.9L50.9,61z"/></svg>
